<mxfile host="app.diagrams.net" agent="Mozilla/5.0 (Windows NT 10.0; Win64; x64) AppleWebKit/537.36 (KHTML, like Gecko) Chrome/135.0.0.0 Safari/537.36" version="26.2.14">
  <diagram name="Page-1" id="gPERpf9UdNiO2c5s7agE">
    <mxGraphModel dx="1426" dy="777" grid="1" gridSize="10" guides="1" tooltips="1" connect="1" arrows="1" fold="1" page="1" pageScale="1" pageWidth="827" pageHeight="1169" math="0" shadow="0">
      <root>
        <mxCell id="0" />
        <mxCell id="1" parent="0" />
        <mxCell id="vDhwdmV8-rmcX5jLC_KC-16" value="Captured image" style="edgeStyle=orthogonalEdgeStyle;rounded=0;orthogonalLoop=1;jettySize=auto;html=1;curved=0;" edge="1" parent="1" source="vDhwdmV8-rmcX5jLC_KC-1" target="vDhwdmV8-rmcX5jLC_KC-15">
          <mxGeometry relative="1" as="geometry">
            <Array as="points">
              <mxPoint x="240" y="150" />
              <mxPoint x="240" y="150" />
            </Array>
          </mxGeometry>
        </mxCell>
        <mxCell id="vDhwdmV8-rmcX5jLC_KC-1" value="Webcam" style="shape=umlLifeline;perimeter=lifelinePerimeter;whiteSpace=wrap;html=1;container=1;dropTarget=0;collapsible=0;recursiveResize=0;outlineConnect=0;portConstraint=eastwest;newEdgeStyle={&quot;curved&quot;:0,&quot;rounded&quot;:0};" vertex="1" parent="1">
          <mxGeometry x="100" y="80" width="100" height="310" as="geometry" />
        </mxCell>
        <mxCell id="vDhwdmV8-rmcX5jLC_KC-44" value="Request gesture" style="edgeStyle=orthogonalEdgeStyle;rounded=0;orthogonalLoop=1;jettySize=auto;html=1;curved=0;" edge="1" parent="1" source="vDhwdmV8-rmcX5jLC_KC-3" target="vDhwdmV8-rmcX5jLC_KC-1">
          <mxGeometry relative="1" as="geometry">
            <Array as="points">
              <mxPoint x="430" y="130" />
              <mxPoint x="430" y="130" />
            </Array>
          </mxGeometry>
        </mxCell>
        <mxCell id="vDhwdmV8-rmcX5jLC_KC-3" value="State machine" style="shape=umlLifeline;perimeter=lifelinePerimeter;whiteSpace=wrap;html=1;container=1;dropTarget=0;collapsible=0;recursiveResize=0;outlineConnect=0;portConstraint=eastwest;newEdgeStyle={&quot;curved&quot;:0,&quot;rounded&quot;:0};" vertex="1" parent="1">
          <mxGeometry x="670" y="80" width="100" height="310" as="geometry" />
        </mxCell>
        <mxCell id="vDhwdmV8-rmcX5jLC_KC-26" value="" style="html=1;points=[[0,0,0,0,5],[0,1,0,0,-5],[1,0,0,0,5],[1,1,0,0,-5]];perimeter=orthogonalPerimeter;outlineConnect=0;targetShapes=umlLifeline;portConstraint=eastwest;newEdgeStyle={&quot;curved&quot;:0,&quot;rounded&quot;:0};" vertex="1" parent="vDhwdmV8-rmcX5jLC_KC-3">
          <mxGeometry x="45" y="210" width="10" height="90" as="geometry" />
        </mxCell>
        <mxCell id="vDhwdmV8-rmcX5jLC_KC-4" value="Image prcessor" style="shape=umlLifeline;perimeter=lifelinePerimeter;whiteSpace=wrap;html=1;container=1;dropTarget=0;collapsible=0;recursiveResize=0;outlineConnect=0;portConstraint=eastwest;newEdgeStyle={&quot;curved&quot;:0,&quot;rounded&quot;:0};" vertex="1" parent="1">
          <mxGeometry x="244" y="80" width="100" height="310" as="geometry" />
        </mxCell>
        <mxCell id="vDhwdmV8-rmcX5jLC_KC-15" value="" style="html=1;points=[[0,0,0,0,5],[0,1,0,0,-5],[1,0,0,0,5],[1,1,0,0,-5]];perimeter=orthogonalPerimeter;outlineConnect=0;targetShapes=umlLifeline;portConstraint=eastwest;newEdgeStyle={&quot;curved&quot;:0,&quot;rounded&quot;:0};" vertex="1" parent="vDhwdmV8-rmcX5jLC_KC-4">
          <mxGeometry x="45" y="60" width="10" height="60" as="geometry" />
        </mxCell>
        <mxCell id="vDhwdmV8-rmcX5jLC_KC-5" value="Classifier" style="shape=umlLifeline;perimeter=lifelinePerimeter;whiteSpace=wrap;html=1;container=1;dropTarget=0;collapsible=0;recursiveResize=0;outlineConnect=0;portConstraint=eastwest;newEdgeStyle={&quot;curved&quot;:0,&quot;rounded&quot;:0};" vertex="1" parent="1">
          <mxGeometry x="390" y="80" width="100" height="310" as="geometry" />
        </mxCell>
        <mxCell id="vDhwdmV8-rmcX5jLC_KC-19" value="" style="html=1;points=[[0,0,0,0,5],[0,1,0,0,-5],[1,0,0,0,5],[1,1,0,0,-5]];perimeter=orthogonalPerimeter;outlineConnect=0;targetShapes=umlLifeline;portConstraint=eastwest;newEdgeStyle={&quot;curved&quot;:0,&quot;rounded&quot;:0};" vertex="1" parent="vDhwdmV8-rmcX5jLC_KC-5">
          <mxGeometry x="45" y="100" width="10" height="130" as="geometry" />
        </mxCell>
        <mxCell id="vDhwdmV8-rmcX5jLC_KC-6" value="Validator" style="shape=umlLifeline;perimeter=lifelinePerimeter;whiteSpace=wrap;html=1;container=1;dropTarget=0;collapsible=0;recursiveResize=0;outlineConnect=0;portConstraint=eastwest;newEdgeStyle={&quot;curved&quot;:0,&quot;rounded&quot;:0};" vertex="1" parent="1">
          <mxGeometry x="530" y="80" width="100" height="310" as="geometry" />
        </mxCell>
        <mxCell id="vDhwdmV8-rmcX5jLC_KC-22" value="" style="html=1;points=[[0,0,0,0,5],[0,1,0,0,-5],[1,0,0,0,5],[1,1,0,0,-5]];perimeter=orthogonalPerimeter;outlineConnect=0;targetShapes=umlLifeline;portConstraint=eastwest;newEdgeStyle={&quot;curved&quot;:0,&quot;rounded&quot;:0};" vertex="1" parent="vDhwdmV8-rmcX5jLC_KC-6">
          <mxGeometry x="45" y="140" width="10" height="60" as="geometry" />
        </mxCell>
        <mxCell id="vDhwdmV8-rmcX5jLC_KC-8" value="YUMI" style="shape=umlLifeline;perimeter=lifelinePerimeter;whiteSpace=wrap;html=1;container=1;dropTarget=0;collapsible=0;recursiveResize=0;outlineConnect=0;portConstraint=eastwest;newEdgeStyle={&quot;curved&quot;:0,&quot;rounded&quot;:0};" vertex="1" parent="1">
          <mxGeometry x="810" y="80" width="100" height="310" as="geometry" />
        </mxCell>
        <mxCell id="vDhwdmV8-rmcX5jLC_KC-39" value="" style="html=1;points=[[0,0,0,0,5],[0,1,0,0,-5],[1,0,0,0,5],[1,1,0,0,-5]];perimeter=orthogonalPerimeter;outlineConnect=0;targetShapes=umlLifeline;portConstraint=eastwest;newEdgeStyle={&quot;curved&quot;:0,&quot;rounded&quot;:0};" vertex="1" parent="vDhwdmV8-rmcX5jLC_KC-8">
          <mxGeometry x="45" y="220" width="10" height="70" as="geometry" />
        </mxCell>
        <mxCell id="vDhwdmV8-rmcX5jLC_KC-17" value="Processed image" style="edgeStyle=orthogonalEdgeStyle;rounded=0;orthogonalLoop=1;jettySize=auto;html=1;curved=0;" edge="1" parent="1" source="vDhwdmV8-rmcX5jLC_KC-15" target="vDhwdmV8-rmcX5jLC_KC-5">
          <mxGeometry relative="1" as="geometry">
            <Array as="points">
              <mxPoint x="370" y="190" />
              <mxPoint x="370" y="190" />
            </Array>
          </mxGeometry>
        </mxCell>
        <mxCell id="vDhwdmV8-rmcX5jLC_KC-23" value="Classification" style="edgeStyle=orthogonalEdgeStyle;rounded=0;orthogonalLoop=1;jettySize=auto;html=1;curved=0;" edge="1" parent="1" source="vDhwdmV8-rmcX5jLC_KC-19" target="vDhwdmV8-rmcX5jLC_KC-22">
          <mxGeometry relative="1" as="geometry">
            <Array as="points">
              <mxPoint x="510" y="230" />
              <mxPoint x="510" y="230" />
            </Array>
          </mxGeometry>
        </mxCell>
        <mxCell id="vDhwdmV8-rmcX5jLC_KC-24" value="Processed image" style="edgeStyle=orthogonalEdgeStyle;rounded=0;orthogonalLoop=1;jettySize=auto;html=1;curved=0;" edge="1" parent="1" source="vDhwdmV8-rmcX5jLC_KC-19" target="vDhwdmV8-rmcX5jLC_KC-22">
          <mxGeometry relative="1" as="geometry">
            <Array as="points">
              <mxPoint x="510" y="240" />
              <mxPoint x="510" y="240" />
            </Array>
          </mxGeometry>
        </mxCell>
        <mxCell id="vDhwdmV8-rmcX5jLC_KC-27" value="Validation result" style="edgeStyle=orthogonalEdgeStyle;rounded=0;orthogonalLoop=1;jettySize=auto;html=1;curved=0;dashed=1;" edge="1" parent="1" source="vDhwdmV8-rmcX5jLC_KC-22" target="vDhwdmV8-rmcX5jLC_KC-19">
          <mxGeometry relative="1" as="geometry">
            <Array as="points">
              <mxPoint x="510" y="270" />
              <mxPoint x="510" y="270" />
            </Array>
          </mxGeometry>
        </mxCell>
        <mxCell id="vDhwdmV8-rmcX5jLC_KC-28" value="until validated" style="shape=umlFrame;whiteSpace=wrap;html=1;pointerEvents=0;width=100;height=20;" vertex="1" parent="1">
          <mxGeometry x="410" y="150" width="190" height="140" as="geometry" />
        </mxCell>
        <mxCell id="vDhwdmV8-rmcX5jLC_KC-32" value="Classificaion" style="edgeStyle=orthogonalEdgeStyle;rounded=0;orthogonalLoop=1;jettySize=auto;html=1;curved=0;" edge="1" parent="1" source="vDhwdmV8-rmcX5jLC_KC-19" target="vDhwdmV8-rmcX5jLC_KC-26">
          <mxGeometry relative="1" as="geometry">
            <Array as="points">
              <mxPoint x="510" y="300" />
              <mxPoint x="510" y="300" />
            </Array>
          </mxGeometry>
        </mxCell>
        <mxCell id="vDhwdmV8-rmcX5jLC_KC-40" value="Excecute move" style="edgeStyle=orthogonalEdgeStyle;rounded=0;orthogonalLoop=1;jettySize=auto;html=1;curved=0;" edge="1" parent="1" source="vDhwdmV8-rmcX5jLC_KC-26" target="vDhwdmV8-rmcX5jLC_KC-39">
          <mxGeometry relative="1" as="geometry">
            <Array as="points">
              <mxPoint x="820" y="310" />
              <mxPoint x="820" y="310" />
            </Array>
          </mxGeometry>
        </mxCell>
        <mxCell id="vDhwdmV8-rmcX5jLC_KC-41" value="response" style="edgeStyle=orthogonalEdgeStyle;rounded=0;orthogonalLoop=1;jettySize=auto;html=1;curved=0;dashed=1;" edge="1" parent="1" source="vDhwdmV8-rmcX5jLC_KC-39" target="vDhwdmV8-rmcX5jLC_KC-26">
          <mxGeometry relative="1" as="geometry">
            <Array as="points">
              <mxPoint x="790" y="320" />
              <mxPoint x="790" y="320" />
            </Array>
            <mxPoint as="offset" />
          </mxGeometry>
        </mxCell>
        <mxCell id="vDhwdmV8-rmcX5jLC_KC-42" value="move complete" style="edgeStyle=orthogonalEdgeStyle;rounded=0;orthogonalLoop=1;jettySize=auto;html=1;curved=0;dashed=1;" edge="1" parent="1" source="vDhwdmV8-rmcX5jLC_KC-39" target="vDhwdmV8-rmcX5jLC_KC-26">
          <mxGeometry relative="1" as="geometry">
            <Array as="points">
              <mxPoint x="790" y="360" />
              <mxPoint x="790" y="360" />
            </Array>
          </mxGeometry>
        </mxCell>
        <mxCell id="vDhwdmV8-rmcX5jLC_KC-43" value="Request new image" style="edgeStyle=orthogonalEdgeStyle;rounded=0;orthogonalLoop=1;jettySize=auto;html=1;curved=0;" edge="1" parent="1" source="vDhwdmV8-rmcX5jLC_KC-26" target="vDhwdmV8-rmcX5jLC_KC-1">
          <mxGeometry relative="1" as="geometry">
            <Array as="points">
              <mxPoint x="440" y="370" />
              <mxPoint x="440" y="370" />
            </Array>
          </mxGeometry>
        </mxCell>
      </root>
    </mxGraphModel>
  </diagram>
</mxfile>
